# xmcd CD database file
#
# Track frame offsets:
#	150
#	29011
#	43403
#	72055
#	100241
#	120905
#	142881
#	178208
#
# Disc length: 3015 seconds
#
# Revision: 0
# Processed by: cddbd v1.5.1PL0 Copyright (c) Steve Scherf et al.
# Submitted via: CDex 1.60beta1
#
DISCID=6e0bc508
DTITLE=Johnny Rawls - Live In Montana
DYEAR=1900
DGENRE=Blues
TTITLE0=Feels So Good
TTITLE1=Shake It
TTITLE2=Can't Nobody
TTITLE3=My Turn To Win
TTITLE4=Lucy
TTITLE5=All In The Game
TTITLE6=It Ain't Nothin But The Truth
TTITLE7=Don't Loose Your Good Thing
EXTD=
EXTT0=
EXTT1=
EXTT2=
EXTT3=
EXTT4=
EXTT5=
EXTT6=
EXTT7=
PLAYORDER=
